<svg width="16" height="16" viewBox="0 0 16 16" fill="none" xmlns="http://www.w3.org/2000/svg">
<g id="icons">
<path id="Vector" d="M3.51454 7.45681C3.20772 7.45681 2.95898 7.70001 2.95898 8C2.95898 8.29999 3.20772 8.54318 3.51454 8.54318V7.45681ZM12.7963 8.38409C13.0132 8.17196 13.0132 7.82804 12.7963 7.61591L9.26073 4.1591C9.04377 3.94697 8.69202 3.94697 8.47506 4.1591C8.25809 4.37122 8.25809 4.71515 8.47506 4.92727L11.6177 8L8.47506 11.0727C8.25809 11.2849 8.25809 11.6288 8.47506 11.8409C8.69202 12.053 9.04377 12.053 9.26073 11.8409L12.7963 8.38409ZM3.51454 8.54318H12.4034V7.45681H3.51454V8.54318Z" fill="#EDEDED"/>
</g>
</svg>
